<?xml version="1.0" encoding="UTF-8" standalone="no"?>
<!-- Created with Inkscape (http://www.inkscape.org/) -->

<svg
   xmlns:osb="http://www.openswatchbook.org/uri/2009/osb"
   xmlns:dc="http://purl.org/dc/elements/1.1/"
   xmlns:cc="http://creativecommons.org/ns#"
   xmlns:rdf="http://www.w3.org/1999/02/22-rdf-syntax-ns#"
   xmlns:svg="http://www.w3.org/2000/svg"
   xmlns="http://www.w3.org/2000/svg"
   xmlns:sodipodi="http://sodipodi.sourceforge.net/DTD/sodipodi-0.dtd"
   xmlns:inkscape="http://www.inkscape.org/namespaces/inkscape"
   width="32"
   height="32"
   id="svg2"
   inkscape:label="Pozadí"
   version="1.1"
   inkscape:version="0.48.2 r9819"
   sodipodi:docname="modern-coo4.svg">
  <defs
     id="defs3">
    <linearGradient
       id="linearGradient10842">
      <stop
         style="stop-color:#ffffff;stop-opacity:0.94117647;"
         offset="0"
         id="stop10844" />
      <stop
         id="stop10850"
         offset="0"
         style="stop-color:#ffffff;stop-opacity:0.49803922;" />
      <stop
         style="stop-color:#ffffff;stop-opacity:0.94117647;"
         offset="1"
         id="stop10846" />
    </linearGradient>
    <linearGradient
       id="linearGradient9386">
      <stop
         style="stop-color:#ffffff;stop-opacity:1;"
         offset="0"
         id="stop9388" />
      <stop
         id="stop9396"
         offset="0.25"
         style="stop-color:#ffffff;stop-opacity:0.74901961;" />
      <stop
         id="stop9394"
         offset="0.5"
         style="stop-color:#ffffff;stop-opacity:0.49803922;" />
      <stop
         style="stop-color:#ffffff;stop-opacity:0;"
         offset="1"
         id="stop9390" />
    </linearGradient>
    <linearGradient
       id="linearGradient3756"
       osb:paint="gradient">
      <stop
         style="stop-color:#3f3f3f;stop-opacity:0.62352943;"
         offset="0"
         id="stop3758" />
      <stop
         id="stop3776"
         offset="0.5"
         style="stop-color:#1f1f1f;stop-opacity:0.62352943;" />
      <stop
         id="stop3774"
         offset="0.5"
         style="stop-color:#000000;stop-opacity:0.62352943;" />
      <stop
         style="stop-color:#5f5f5f;stop-opacity:0.62352943;"
         offset="1"
         id="stop3760" />
    </linearGradient>
    <filter
       id="filter3982"
       inkscape:label="Glow"
       inkscape:menu="Shadows and Glows"
       inkscape:menu-tooltip="Glow of object's own color at the edges"
       color-interpolation-filters="sRGB">
      <feGaussianBlur
         id="feGaussianBlur3984"
         stdDeviation="5"
         result="result91" />
      <feComposite
         id="feComposite3986"
         in2="result91"
         in="SourceGraphic"
         operator="over" />
    </filter>
  </defs>
  <sodipodi:namedview
     id="base"
     pagecolor="#ffffff"
     bordercolor="#666666"
     borderopacity="1.0"
     inkscape:pageopacity="0.0"
     inkscape:pageshadow="2"
     inkscape:zoom="7.919596"
     inkscape:cx="20.673697"
     inkscape:cy="21.974855"
     inkscape:document-units="px"
     inkscape:current-layer="layer1"
     showgrid="false"
     inkscape:window-width="1680"
     inkscape:window-height="1000"
     inkscape:window-x="-8"
     inkscape:window-y="-8"
     inkscape:window-maximized="1" />
  <metadata
     id="metadata6">
    <rdf:RDF>
      <cc:Work
         rdf:about="">
        <dc:format>image/svg+xml</dc:format>
        <dc:type
           rdf:resource="http://purl.org/dc/dcmitype/StillImage" />
        <dc:title></dc:title>
      </cc:Work>
    </rdf:RDF>
  </metadata>
  <g
     inkscape:label="Vrstva 1"
     inkscape:groupmode="layer"
     id="layer1"
     transform="translate(0,-1020.3622)">
    <path
       style="fill:#000000;fill-opacity:1;fill-rule:evenodd;stroke:none"
       d="M 16 2 C 8.2680135 2 2 8.2680137 2 16 C 2 23.731986 8.2680135 30 16 30 C 23.731987 30 30 23.731986 30 16 C 30 8.2680137 23.731987 2 16 2 z M 15.53125 6.03125 C 16.683586 6.0312703 17.679679 6.2138873 18.5 6.53125 C 19.320303 6.8486523 19.977528 7.2754097 20.5 7.8125 C 21.022449 8.3496274 21.412097 8.962908 21.65625 9.65625 C 21.900378 10.349625 22.031237 11.072281 22.03125 11.84375 C 22.031237 12.644545 21.91698 13.355482 21.6875 14 C 21.457996 14.644543 21.133777 15.218761 20.71875 15.6875 C 20.3037 16.15626 19.799794 16.529307 19.21875 16.8125 C 18.637686 17.095712 18.015616 17.265634 17.3125 17.34375 L 17.1875 20.21875 C 17.177727 20.394537 17.018547 20.505865 16.75 20.59375 C 16.481438 20.681646 16.101556 20.750006 15.59375 20.75 C 15.271478 20.750006 15.000971 20.733404 14.78125 20.71875 C 14.561518 20.704107 14.408198 20.664068 14.28125 20.625 C 14.154292 20.585943 14.058589 20.537115 14 20.46875 C 13.941402 20.400397 13.884761 20.326178 13.875 20.21875 L 13.75 16.75 C 13.74023 16.43751 13.773433 16.195323 13.8125 16 C 13.851558 15.804698 13.897456 15.648448 14 15.53125 C 14.102534 15.414073 14.249995 15.325206 14.40625 15.28125 C 14.562495 15.237316 14.753901 15.218761 14.96875 15.21875 L 15.15625 15.21875 C 15.673822 15.218761 16.124017 15.134777 16.5 14.96875 C 16.875969 14.802746 17.193352 14.585949 17.4375 14.3125 C 17.681632 14.039075 17.856437 13.714856 17.96875 13.34375 C 18.081046 12.97267 18.124991 12.576186 18.125 12.15625 C 18.124991 11.687515 18.069327 11.26564 17.9375 10.875 C 17.805656 10.484391 17.612296 10.126969 17.34375 9.84375 C 17.075188 9.5605636 16.717766 9.3388842 16.3125 9.1875 C 15.90722 9.0361501 15.453119 8.9687673 14.90625 8.96875 C 14.408198 8.9687673 13.943355 9.027361 13.5625 9.125 C 13.181637 9.2226733 12.867184 9.3203295 12.59375 9.4375 C 12.32031 9.5547043 12.086911 9.6523604 11.90625 9.75 C 11.725584 9.8476727 11.597654 9.9062664 11.5 9.90625 C 11.431639 9.9062664 11.371092 9.8877117 11.3125 9.84375 C 11.253904 9.7998212 11.195311 9.7109541 11.15625 9.59375 C 11.117186 9.4765793 11.086912 9.3086107 11.0625 9.09375 C 11.038084 8.8789237 11.031248 8.613299 11.03125 8.28125 C 11.031248 7.9394715 11.033201 7.6875186 11.0625 7.53125 C 11.091795 7.3750189 11.152342 7.2539253 11.25 7.15625 C 11.347654 7.058613 11.53906 6.9443553 11.8125 6.8125 C 12.085935 6.6806837 12.431638 6.5498244 12.8125 6.4375 C 13.193356 6.3252153 13.593746 6.2343951 14.0625 6.15625 C 14.531245 6.0781452 15.023432 6.0312703 15.53125 6.03125 z M 15.625 22.21875 C 16.015618 22.218754 16.356438 22.239262 16.625 22.3125 C 16.893547 22.385746 17.088859 22.516605 17.25 22.6875 C 17.411125 22.858402 17.530265 23.096683 17.59375 23.375 C 17.657218 23.653323 17.687492 23.996096 17.6875 24.40625 C 17.687492 24.806642 17.657218 25.132814 17.59375 25.40625 C 17.530265 25.679688 17.411125 25.896485 17.25 26.0625 C 17.088859 26.228516 16.893547 26.364258 16.625 26.4375 C 16.356438 26.510742 16.015618 26.53125 15.625 26.53125 C 15.214838 26.53125 14.888666 26.510742 14.625 26.4375 C 14.361323 26.364258 14.129878 26.228516 13.96875 26.0625 C 13.807613 25.896485 13.719722 25.679688 13.65625 25.40625 C 13.592769 25.132814 13.562496 24.806642 13.5625 24.40625 C 13.562496 23.996096 13.592769 23.653323 13.65625 23.375 C 13.719722 23.096683 13.807613 22.858402 13.96875 22.6875 C 14.129878 22.516605 14.361323 22.385746 14.625 22.3125 C 14.888666 22.239262 15.214838 22.218754 15.625 22.21875 z "
       transform="translate(0,1020.3622)"
       id="path4138" />
  </g>
</svg>
